<svg width="540" height="150" viewBox="0 0 540 150" fill="none" xmlns="http://www.w3.org/2000/svg">
<g clip-path="url(#clip0_2_269)">
<g filter="url(#filter0_d_2_269)">
<path fill-rule="evenodd" clip-rule="evenodd" d="M0 6C0 2.68629 2.68629 0 6 0H534C537.314 0 540 2.68629 540 6V144C540 147.314 537.314 150 534 150H6.00002C2.68631 150 0 147.314 0 144V6Z" fill="#34C759"/>
</g>
<path d="M421.428 119H415.58V117.84L418.34 114.898C418.719 114.484 418.998 114.123 419.178 113.814C419.361 113.506 419.453 113.213 419.453 112.936C419.453 112.557 419.357 112.26 419.166 112.045C418.975 111.826 418.701 111.717 418.346 111.717C417.963 111.717 417.66 111.85 417.438 112.115C417.219 112.377 417.109 112.723 417.109 113.152H415.41C415.41 112.633 415.533 112.158 415.779 111.729C416.029 111.299 416.381 110.963 416.834 110.721C417.287 110.475 417.801 110.352 418.375 110.352C419.254 110.352 419.936 110.562 420.42 110.984C420.908 111.406 421.152 112.002 421.152 112.771C421.152 113.193 421.043 113.623 420.824 114.061C420.605 114.498 420.23 115.008 419.699 115.59L417.76 117.635H421.428V119ZM428.271 111.418L424.973 119H423.186L426.49 111.84H422.248V110.469H428.271V111.418ZM429.613 114.805L430.105 110.469H434.887V111.881H431.494L431.283 113.715C431.686 113.5 432.113 113.393 432.566 113.393C433.379 113.393 434.016 113.645 434.477 114.148C434.938 114.652 435.168 115.357 435.168 116.264C435.168 116.814 435.051 117.309 434.816 117.746C434.586 118.18 434.254 118.518 433.82 118.76C433.387 118.998 432.875 119.117 432.285 119.117C431.77 119.117 431.291 119.014 430.85 118.807C430.408 118.596 430.059 118.301 429.801 117.922C429.547 117.543 429.412 117.111 429.396 116.627H431.072C431.107 116.982 431.23 117.26 431.441 117.459C431.656 117.654 431.936 117.752 432.279 117.752C432.662 117.752 432.957 117.615 433.164 117.342C433.371 117.064 433.475 116.674 433.475 116.17C433.475 115.686 433.355 115.314 433.117 115.057C432.879 114.799 432.541 114.67 432.104 114.67C431.701 114.67 431.375 114.775 431.125 114.986L430.961 115.139L429.613 114.805Z" fill="#1A1A1A"/>
<mask id="mask0_2_269" style="mask-type:luminance" maskUnits="userSpaceOnUse" x="379" y="107" width="22" height="16">
<path fill-rule="evenodd" clip-rule="evenodd" d="M390 107.5C385 107.5 380.73 110.61 379 115C380.73 119.39 385 122.5 390 122.5C395 122.5 399.27 119.39 401 115C399.27 110.61 395 107.5 390 107.5ZM390 120C387.24 120 385 117.76 385 115C385 112.24 387.24 110 390 110C392.76 110 395 112.24 395 115C395 117.76 392.76 120 390 120ZM390 112C388.34 112 387 113.34 387 115C387 116.66 388.34 118 390 118C391.66 118 393 116.66 393 115C393 113.34 391.66 112 390 112Z" fill="white"/>
</mask>
<g mask="url(#mask0_2_269)">
<rect x="377" y="102" width="26" height="26" fill="#191919"/>
</g>
<path d="M504.693 119H503V112.473L500.979 113.1V111.723L504.512 110.457H504.693V119ZM513.318 119H507.471V117.84L510.23 114.898C510.609 114.484 510.889 114.123 511.068 113.814C511.252 113.506 511.344 113.213 511.344 112.936C511.344 112.557 511.248 112.26 511.057 112.045C510.865 111.826 510.592 111.717 510.236 111.717C509.854 111.717 509.551 111.85 509.328 112.115C509.109 112.377 509 112.723 509 113.152H507.301C507.301 112.633 507.424 112.158 507.67 111.729C507.92 111.299 508.271 110.963 508.725 110.721C509.178 110.475 509.691 110.352 510.266 110.352C511.145 110.352 511.826 110.562 512.311 110.984C512.799 111.406 513.043 112.002 513.043 112.771C513.043 113.193 512.934 113.623 512.715 114.061C512.496 114.498 512.121 115.008 511.59 115.59L509.65 117.635H513.318V119Z" fill="#1A1A1A"/>
<mask id="mask1_2_269" style="mask-type:luminance" maskUnits="userSpaceOnUse" x="465" y="105" width="20" height="20">
<path fill-rule="evenodd" clip-rule="evenodd" d="M484 109H482V118H469V120C469 120.55 469.45 121 470 121H481L485 125V110C485 109.45 484.55 109 484 109ZM480 115V106C480 105.45 479.55 105 479 105H466C465.45 105 465 105.45 465 106V120L469 116H479C479.55 116 480 115.55 480 115Z" fill="white"/>
</mask>
<g mask="url(#mask1_2_269)">
<rect x="462" y="102" width="26" height="26" fill="#191919"/>
</g>
<path d="M110.504 111.824C110.504 113.696 110.672 116.144 113.336 116.144C116 116.144 116.168 113.696 116.168 111.824C116.168 109.94 116 107.492 113.336 107.492C110.672 107.492 110.504 109.94 110.504 111.824ZM111.584 111.812C111.584 110.552 111.596 108.392 113.336 108.392C115.076 108.392 115.088 110.552 115.088 111.812C115.088 113.084 115.076 115.244 113.336 115.244C111.596 115.244 111.584 113.084 111.584 111.812ZM122.776 107.636H117.268V108.596H121.732C119.944 110.492 118.564 113.12 118.372 116H119.512C119.668 113.336 121.06 110.216 122.776 108.512V107.636ZM131.968 107.432H130.828V113.696C130.828 114.644 130.504 115.244 129.46 115.244C128.344 115.244 128.08 114.536 128.08 113.54V113.18H126.94V113.708C126.94 115.316 127.84 116.204 129.436 116.204C131.356 116.204 131.968 115.028 131.968 113.864V107.432ZM137.506 113.84C137.506 114.404 136.954 115.244 135.61 115.244C134.986 115.244 134.41 115.004 134.41 114.332C134.41 113.576 134.986 113.336 135.658 113.216C136.342 113.096 137.11 113.084 137.506 112.796V113.84ZM139.162 115.184C139.03 115.232 138.934 115.244 138.85 115.244C138.526 115.244 138.526 115.028 138.526 114.548V111.356C138.526 109.904 137.314 109.652 136.198 109.652C134.818 109.652 133.63 110.192 133.57 111.728H134.59C134.638 110.816 135.274 110.552 136.138 110.552C136.786 110.552 137.518 110.696 137.518 111.584C137.518 112.352 136.558 112.28 135.43 112.496C134.374 112.7 133.33 113 133.33 114.404C133.33 115.64 134.254 116.144 135.382 116.144C136.246 116.144 137.002 115.844 137.566 115.184C137.566 115.856 137.902 116.144 138.43 116.144C138.754 116.144 138.982 116.084 139.162 115.976V115.184ZM140.112 116H141.132V112.496C141.132 111.38 141.732 110.552 142.968 110.552C143.748 110.552 144.228 111.044 144.228 111.8V116H145.248V111.92C145.248 110.588 144.744 109.652 143.112 109.652C142.224 109.652 141.528 110.012 141.096 110.78H141.072V109.796H140.112V116ZM150.9 110.504C150.864 109.484 151.368 108.392 152.556 108.392C153.456 108.392 154.2 109.004 154.2 109.928C154.2 111.104 153.468 111.632 152.028 112.52C150.828 113.264 149.808 113.984 149.64 116H155.196V115.1H150.828C151.032 114.044 152.148 113.504 153.216 112.856C154.272 112.196 155.28 111.44 155.28 109.94C155.28 108.356 154.104 107.492 152.616 107.492C150.816 107.492 149.796 108.776 149.88 110.504H150.9ZM156.524 111.824C156.524 113.696 156.692 116.144 159.356 116.144C162.02 116.144 162.188 113.696 162.188 111.824C162.188 109.94 162.02 107.492 159.356 107.492C156.692 107.492 156.524 109.94 156.524 111.824ZM157.604 111.812C157.604 110.552 157.616 108.392 159.356 108.392C161.096 108.392 161.108 110.552 161.108 111.812C161.108 113.084 161.096 115.244 159.356 115.244C157.616 115.244 157.604 113.084 157.604 111.812ZM166.96 107.492H166.18C165.952 108.776 164.896 109.088 163.732 109.088V109.904H165.94V116H166.96V107.492ZM172.787 111.428C173.951 111.428 174.503 112.304 174.503 113.36C174.503 114.368 173.891 115.244 172.787 115.244C171.671 115.244 171.023 114.404 171.023 113.348C171.023 112.28 171.647 111.428 172.787 111.428ZM175.343 109.664C175.223 108.284 174.347 107.492 172.943 107.492C170.519 107.492 169.811 109.712 169.811 112.052C169.811 113.84 170.219 116.144 172.739 116.144C174.887 116.144 175.583 114.524 175.583 113.288C175.583 111.716 174.611 110.528 172.979 110.528C172.055 110.528 171.335 110.864 170.855 111.644L170.831 111.62C170.879 110.312 171.155 108.392 172.895 108.392C173.699 108.392 174.227 108.896 174.323 109.664H175.343Z" fill="#1A1A1A"/>
<g clip-path="url(#clip1_2_269)">
<mask id="mask2_2_269" style="mask-type:luminance" maskUnits="userSpaceOnUse" x="30" y="100" width="65" height="25">
<path fill-rule="evenodd" clip-rule="evenodd" d="M30 104C30 101.791 31.7909 100 34 100H91C93.2091 100 95 101.791 95 104V121C95 123.209 93.2091 125 91 125H34C31.7909 125 30 123.209 30 121V104Z" fill="white"/>
</mask>
<g mask="url(#mask2_2_269)">
<rect x="30" y="100" width="65" height="25" fill="black"/>
<path d="M46.6136 110.92H48.3536C48.3536 110.153 48.1703 109.597 47.8036 109.25C47.4436 108.897 46.857 108.72 46.0436 108.72C45.257 108.72 44.6703 108.91 44.2836 109.29C43.897 109.67 43.7036 110.223 43.7036 110.95C43.7036 111.37 43.7736 111.71 43.9136 111.97C44.0603 112.23 44.2403 112.44 44.4536 112.6C44.6736 112.76 44.9103 112.89 45.1636 112.99C45.417 113.09 45.6503 113.19 45.8636 113.29C46.0836 113.383 46.2636 113.5 46.4036 113.64C46.5503 113.773 46.6236 113.957 46.6236 114.19C46.6236 114.383 46.5703 114.547 46.4636 114.68C46.3636 114.813 46.217 114.88 46.0236 114.88C45.8436 114.88 45.697 114.82 45.5836 114.7C45.4703 114.573 45.4136 114.357 45.4136 114.05V113.88H43.6136V114.13C43.6136 114.503 43.667 114.817 43.7736 115.07C43.8803 115.323 44.0336 115.53 44.2336 115.69C44.4403 115.843 44.6903 115.95 44.9836 116.01C45.2836 116.077 45.627 116.11 46.0136 116.11C46.8336 116.11 47.4603 115.94 47.8936 115.6C48.327 115.253 48.5436 114.7 48.5436 113.94C48.5436 113.507 48.467 113.157 48.3136 112.89C48.167 112.617 47.9803 112.397 47.7536 112.23C47.527 112.063 47.2836 111.93 47.0236 111.83C46.7636 111.723 46.5203 111.62 46.2936 111.52C46.067 111.42 45.877 111.303 45.7236 111.17C45.577 111.03 45.5036 110.843 45.5036 110.61C45.5036 110.45 45.5503 110.307 45.6436 110.18C45.737 110.047 45.8836 109.98 46.0836 109.98C46.2636 109.98 46.397 110.057 46.4836 110.21C46.5703 110.357 46.6136 110.537 46.6136 110.75V110.92ZM53.0647 108.86L52.3947 113.8H52.3747L51.8147 108.86H50.0147L51.2347 116H53.2747L53.8947 111.2H53.9147L54.5347 116H56.5747L57.7947 108.86H55.9947L55.4947 113.8H55.4747L54.7447 108.86H53.0647ZM59.4879 108.86V116H63.8079V114.48H61.3479V113.06H63.5679V111.6H61.3479V110.38H63.7179V108.86H59.4879ZM65.7379 108.86V116H70.0579V114.48H67.5979V113.06H69.8179V111.6H67.5979V110.38H69.9679V108.86H65.7379ZM72.9279 110.44V116H74.7879V110.44H76.1879V108.86H71.5479V110.44H72.9279ZM80.6371 110.92H82.3771C82.3771 110.153 82.1938 109.597 81.8271 109.25C81.4671 108.897 80.8804 108.72 80.0671 108.72C79.2804 108.72 78.6938 108.91 78.3071 109.29C77.9204 109.67 77.7271 110.223 77.7271 110.95C77.7271 111.37 77.7971 111.71 77.9371 111.97C78.0838 112.23 78.2638 112.44 78.4771 112.6C78.6971 112.76 78.9338 112.89 79.1871 112.99C79.4404 113.09 79.6738 113.19 79.8871 113.29C80.1071 113.383 80.2871 113.5 80.4271 113.64C80.5738 113.773 80.6471 113.957 80.6471 114.19C80.6471 114.383 80.5938 114.547 80.4871 114.68C80.3871 114.813 80.2404 114.88 80.0471 114.88C79.8671 114.88 79.7204 114.82 79.6071 114.7C79.4938 114.573 79.4371 114.357 79.4371 114.05V113.88H77.6371V114.13C77.6371 114.503 77.6904 114.817 77.7971 115.07C77.9038 115.323 78.0571 115.53 78.2571 115.69C78.4638 115.843 78.7138 115.95 79.0071 116.01C79.3071 116.077 79.6504 116.11 80.0371 116.11C80.8571 116.11 81.4838 115.94 81.9171 115.6C82.3504 115.253 82.5671 114.7 82.5671 113.94C82.5671 113.507 82.4904 113.157 82.3371 112.89C82.1904 112.617 82.0038 112.397 81.7771 112.23C81.5504 112.063 81.3071 111.93 81.0471 111.83C80.7871 111.723 80.5438 111.62 80.3171 111.52C80.0904 111.42 79.9004 111.303 79.7471 111.17C79.6004 111.03 79.5271 110.843 79.5271 110.61C79.5271 110.45 79.5738 110.307 79.6671 110.18C79.7604 110.047 79.9071 109.98 80.1071 109.98C80.2871 109.98 80.4204 110.057 80.5071 110.21C80.5938 110.357 80.6371 110.537 80.6371 110.75V110.92Z" fill="white"/>
</g>
</g>
<path d="M31.248 49H38.816V47.72H32.768V37.576H31.248V49ZM39.4666 44.872C39.4666 47.288 40.8586 49.192 43.4826 49.192C46.1066 49.192 47.4986 47.288 47.4986 44.872C47.4986 42.44 46.1066 40.536 43.4826 40.536C40.8586 40.536 39.4666 42.44 39.4666 44.872ZM40.9066 44.872C40.9066 42.856 42.0586 41.736 43.4826 41.736C44.9066 41.736 46.0586 42.856 46.0586 44.872C46.0586 46.872 44.9066 47.992 43.4826 47.992C42.0586 47.992 40.9066 46.872 40.9066 44.872ZM49.0541 49H50.4141V45.32C50.4141 43.224 51.2141 41.976 53.4061 41.976V40.536C51.9341 40.488 51.0221 41.144 50.3661 42.472H50.3341V40.728H49.0541V49ZM59.861 46.376C59.621 47.448 58.837 47.992 57.717 47.992C55.909 47.992 55.093 46.712 55.141 45.272H61.333C61.413 43.272 60.517 40.536 57.589 40.536C55.333 40.536 53.701 42.36 53.701 44.84C53.781 47.368 55.029 49.192 57.669 49.192C59.525 49.192 60.837 48.2 61.205 46.376H59.861ZM55.141 44.072C55.237 42.808 56.085 41.736 57.509 41.736C58.853 41.736 59.829 42.776 59.893 44.072H55.141ZM62.7428 49H64.1028V43.848C64.1028 43.224 64.6948 41.736 66.3108 41.736C67.5268 41.736 67.8628 42.504 67.8628 43.576V49H69.2228V43.848C69.2228 42.568 70.0708 41.736 71.3828 41.736C72.7108 41.736 72.9828 42.552 72.9828 43.576V49H74.3428V42.936C74.3428 41.224 73.2388 40.536 71.5908 40.536C70.5347 40.536 69.5588 41.064 68.9988 41.944C68.6628 40.936 67.7348 40.536 66.7268 40.536C65.5908 40.536 64.6628 41.016 64.0548 41.944H64.0228V40.728H62.7428V49ZM80.9165 49H82.2765V40.728H80.9165V49ZM82.2765 37.576H80.9165V39.24H82.2765V37.576ZM90.8314 44.792C90.8314 46.408 90.2074 47.992 88.3514 47.992C86.4794 47.992 85.7434 46.488 85.7434 44.856C85.7434 43.304 86.4474 41.736 88.2714 41.736C90.0314 41.736 90.8314 43.24 90.8314 44.792ZM84.4314 52.168H85.7914V47.896H85.8234C86.4314 48.872 87.6474 49.192 88.4954 49.192C91.0234 49.192 92.2714 47.224 92.2714 44.888C92.2714 42.552 91.0074 40.536 88.4634 40.536C87.3274 40.536 86.2714 40.936 85.8234 41.848H85.7914V40.728H84.4314V52.168ZM93.3398 46.392C93.4198 48.44 94.9878 49.192 96.8438 49.192C98.5238 49.192 100.364 48.552 100.364 46.584C100.364 44.984 99.0198 44.536 97.6598 44.232C96.3958 43.928 94.9557 43.768 94.9557 42.792C94.9557 41.96 95.8998 41.736 96.7158 41.736C97.6118 41.736 98.5398 42.072 98.6358 43.128H99.9958C99.8838 41.112 98.4278 40.536 96.6038 40.536C95.1638 40.536 93.5158 41.224 93.5158 42.888C93.5158 44.472 94.8758 44.92 96.2198 45.224C97.5798 45.528 98.9238 45.704 98.9238 46.76C98.9238 47.8 97.7718 47.992 96.9238 47.992C95.8038 47.992 94.7478 47.608 94.6998 46.392H93.3398ZM108.716 40.728H107.356V45.4C107.356 46.888 106.556 47.992 104.908 47.992C103.868 47.992 103.228 47.336 103.228 46.328V40.728H101.868V46.168C101.868 47.944 102.54 49.192 104.716 49.192C105.9 49.192 106.828 48.712 107.404 47.688H107.436V49H108.716V40.728ZM110.758 49H112.118V43.848C112.118 43.224 112.71 41.736 114.326 41.736C115.542 41.736 115.878 42.504 115.878 43.576V49H117.238V43.848C117.238 42.568 118.086 41.736 119.398 41.736C120.726 41.736 120.998 42.552 120.998 43.576V49H122.358V42.936C122.358 41.224 121.254 40.536 119.606 40.536C118.55 40.536 117.574 41.064 117.014 41.944C116.678 40.936 115.75 40.536 114.742 40.536C113.606 40.536 112.678 41.016 112.07 41.944H112.038V40.728H110.758V49ZM136.244 37.576H134.884V41.832H134.852C134.244 40.856 133.028 40.536 132.18 40.536C129.652 40.536 128.404 42.504 128.404 44.84C128.404 47.176 129.668 49.192 132.212 49.192C133.348 49.192 134.404 48.792 134.852 47.88H134.884V49H136.244V37.576ZM129.844 44.936C129.844 43.32 130.468 41.736 132.324 41.736C134.196 41.736 134.932 43.24 134.932 44.872C134.932 46.424 134.228 47.992 132.404 47.992C130.644 47.992 129.844 46.488 129.844 44.936ZM137.889 44.872C137.889 47.288 139.281 49.192 141.905 49.192C144.529 49.192 145.921 47.288 145.921 44.872C145.921 42.44 144.529 40.536 141.905 40.536C139.281 40.536 137.889 42.44 137.889 44.872ZM139.329 44.872C139.329 42.856 140.481 41.736 141.905 41.736C143.329 41.736 144.481 42.856 144.481 44.872C144.481 46.872 143.329 47.992 141.905 47.992C140.481 47.992 139.329 46.872 139.329 44.872ZM147.604 49H148.964V37.576H147.604V49ZM150.623 44.872C150.623 47.288 152.015 49.192 154.639 49.192C157.263 49.192 158.655 47.288 158.655 44.872C158.655 42.44 157.263 40.536 154.639 40.536C152.015 40.536 150.623 42.44 150.623 44.872ZM152.063 44.872C152.063 42.856 153.215 41.736 154.639 41.736C156.063 41.736 157.215 42.856 157.215 44.872C157.215 46.872 156.063 47.992 154.639 47.992C153.215 47.992 152.063 46.872 152.063 44.872ZM160.21 49H161.57V45.32C161.57 43.224 162.37 41.976 164.562 41.976V40.536C163.09 40.488 162.178 41.144 161.522 42.472H161.49V40.728H160.21V49ZM169.512 46.392C169.592 48.44 171.16 49.192 173.016 49.192C174.696 49.192 176.536 48.552 176.536 46.584C176.536 44.984 175.192 44.536 173.832 44.232C172.568 43.928 171.128 43.768 171.128 42.792C171.128 41.96 172.072 41.736 172.888 41.736C173.784 41.736 174.712 42.072 174.808 43.128H176.168C176.056 41.112 174.6 40.536 172.776 40.536C171.336 40.536 169.688 41.224 169.688 42.888C169.688 44.472 171.048 44.92 172.392 45.224C173.752 45.528 175.096 45.704 175.096 46.76C175.096 47.8 173.944 47.992 173.096 47.992C171.976 47.992 170.92 47.608 170.872 46.392H169.512ZM178.12 49H179.48V40.728H178.12V49ZM179.48 37.576H178.12V39.24H179.48V37.576ZM183.475 38.248H182.115V40.728H180.707V41.928H182.115V47.192C182.115 48.712 182.674 49 184.083 49H185.123V47.8H184.499C183.651 47.8 183.475 47.688 183.475 47.064V41.928H185.123V40.728H183.475V38.248ZM196.207 46.12C196.207 46.872 195.471 47.992 193.679 47.992C192.847 47.992 192.079 47.672 192.079 46.776C192.079 45.768 192.847 45.448 193.743 45.288C194.655 45.128 195.679 45.112 196.207 44.728V46.12ZM198.415 47.912C198.239 47.976 198.111 47.992 197.999 47.992C197.567 47.992 197.567 47.704 197.567 47.064V42.808C197.567 40.872 195.951 40.536 194.463 40.536C192.623 40.536 191.039 41.256 190.959 43.304H192.319C192.383 42.088 193.231 41.736 194.383 41.736C195.247 41.736 196.223 41.928 196.223 43.112C196.223 44.136 194.943 44.04 193.439 44.328C192.031 44.6 190.639 45 190.639 46.872C190.639 48.52 191.871 49.192 193.375 49.192C194.527 49.192 195.535 48.792 196.287 47.912C196.287 48.808 196.735 49.192 197.439 49.192C197.871 49.192 198.175 49.112 198.415 48.968V47.912ZM199.68 49H201.04V43.848C201.04 43.224 201.632 41.736 203.248 41.736C204.464 41.736 204.8 42.504 204.8 43.576V49H206.16V43.848C206.16 42.568 207.008 41.736 208.32 41.736C209.648 41.736 209.92 42.552 209.92 43.576V49H211.28V42.936C211.28 41.224 210.176 40.536 208.528 40.536C207.472 40.536 206.496 41.064 205.936 41.944C205.6 40.936 204.672 40.536 203.664 40.536C202.528 40.536 201.6 41.016 200.992 41.944H200.96V40.728H199.68V49ZM219.033 46.376C218.793 47.448 218.009 47.992 216.889 47.992C215.081 47.992 214.265 46.712 214.313 45.272H220.505C220.585 43.272 219.689 40.536 216.761 40.536C214.505 40.536 212.873 42.36 212.873 44.84C212.953 47.368 214.201 49.192 216.841 49.192C218.697 49.192 220.009 48.2 220.377 46.376H219.033ZM214.313 44.072C214.409 42.808 215.257 41.736 216.681 41.736C218.025 41.736 219.001 42.776 219.065 44.072H214.313ZM223.803 38.248H222.443V40.728H221.035V41.928H222.443V47.192C222.443 48.712 223.003 49 224.411 49H225.451V47.8H224.827C223.979 47.8 223.803 47.688 223.803 47.064V41.928H225.451V40.728H223.803V38.248ZM227.266 49H228.21C228.242 49.512 228.002 50.312 227.282 50.552V51.352C228.514 51 229.042 50.04 229.042 48.84V47.224H227.266V49ZM242.892 43.384C242.7 41.416 241.196 40.536 239.324 40.536C236.7 40.536 235.42 42.488 235.42 44.968C235.42 47.432 236.764 49.192 239.292 49.192C241.372 49.192 242.636 47.992 242.94 45.976H241.548C241.372 47.224 240.588 47.992 239.276 47.992C237.548 47.992 236.86 46.488 236.86 44.968C236.86 43.288 237.468 41.736 239.436 41.736C240.556 41.736 241.276 42.344 241.484 43.384H242.892ZM244.014 44.872C244.014 47.288 245.406 49.192 248.03 49.192C250.654 49.192 252.046 47.288 252.046 44.872C252.046 42.44 250.654 40.536 248.03 40.536C245.406 40.536 244.014 42.44 244.014 44.872ZM245.454 44.872C245.454 42.856 246.606 41.736 248.03 41.736C249.454 41.736 250.606 42.856 250.606 44.872C250.606 46.872 249.454 47.992 248.03 47.992C246.606 47.992 245.454 46.872 245.454 44.872ZM253.649 49H255.009V44.328C255.009 42.84 255.809 41.736 257.457 41.736C258.497 41.736 259.137 42.392 259.137 43.4V49H260.497V43.56C260.497 41.784 259.825 40.536 257.649 40.536C256.465 40.536 255.537 41.016 254.961 42.04H254.929V40.728H253.649V49ZM262.012 46.392C262.092 48.44 263.66 49.192 265.516 49.192C267.196 49.192 269.036 48.552 269.036 46.584C269.036 44.984 267.692 44.536 266.332 44.232C265.068 43.928 263.628 43.768 263.628 42.792C263.628 41.96 264.572 41.736 265.388 41.736C266.284 41.736 267.212 42.072 267.308 43.128H268.668C268.556 41.112 267.1 40.536 265.276 40.536C263.836 40.536 262.188 41.224 262.188 42.888C262.188 44.472 263.548 44.92 264.892 45.224C266.252 45.528 267.596 45.704 267.596 46.76C267.596 47.8 266.444 47.992 265.596 47.992C264.476 47.992 263.42 47.608 263.372 46.392H262.012ZM276.252 46.376C276.012 47.448 275.228 47.992 274.108 47.992C272.3 47.992 271.484 46.712 271.532 45.272H277.724C277.804 43.272 276.908 40.536 273.98 40.536C271.724 40.536 270.092 42.36 270.092 44.84C270.172 47.368 271.42 49.192 274.06 49.192C275.916 49.192 277.228 48.2 277.596 46.376H276.252ZM271.532 44.072C271.628 42.808 272.476 41.736 273.9 41.736C275.244 41.736 276.22 42.776 276.284 44.072H271.532ZM286.157 43.384C285.965 41.416 284.461 40.536 282.589 40.536C279.965 40.536 278.685 42.488 278.685 44.968C278.685 47.432 280.029 49.192 282.557 49.192C284.637 49.192 285.901 47.992 286.205 45.976H284.813C284.637 47.224 283.853 47.992 282.541 47.992C280.813 47.992 280.125 46.488 280.125 44.968C280.125 43.288 280.733 41.736 282.701 41.736C283.821 41.736 284.541 42.344 284.749 43.384H286.157ZM289.615 38.248H288.255V40.728H286.847V41.928H288.255V47.192C288.255 48.712 288.815 49 290.223 49H291.263V47.8H290.639C289.791 47.8 289.615 47.688 289.615 47.064V41.928H291.263V40.728H289.615V38.248ZM298.486 46.376C298.246 47.448 297.462 47.992 296.342 47.992C294.534 47.992 293.718 46.712 293.766 45.272H299.958C300.038 43.272 299.142 40.536 296.214 40.536C293.958 40.536 292.326 42.36 292.326 44.84C292.406 47.368 293.654 49.192 296.294 49.192C298.15 49.192 299.462 48.2 299.83 46.376H298.486ZM293.766 44.072C293.862 42.808 294.71 41.736 296.134 41.736C297.478 41.736 298.454 42.776 298.518 44.072H293.766ZM303.256 38.248H301.896V40.728H300.488V41.928H301.896V47.192C301.896 48.712 302.456 49 303.864 49H304.904V47.8H304.28C303.432 47.8 303.256 47.688 303.256 47.064V41.928H304.904V40.728H303.256V38.248ZM313.263 40.728H311.903V45.4C311.903 46.888 311.103 47.992 309.455 47.992C308.415 47.992 307.775 47.336 307.775 46.328V40.728H306.415V46.168C306.415 47.944 307.087 49.192 309.263 49.192C310.447 49.192 311.375 48.712 311.951 47.688H311.983V49H313.263V40.728ZM315.257 49H316.617V45.32C316.617 43.224 317.417 41.976 319.609 41.976V40.536C318.137 40.488 317.225 41.144 316.569 42.472H316.537V40.728H315.257V49ZM330.207 46.12C330.207 46.872 329.471 47.992 327.679 47.992C326.847 47.992 326.079 47.672 326.079 46.776C326.079 45.768 326.847 45.448 327.743 45.288C328.655 45.128 329.679 45.112 330.207 44.728V46.12ZM332.415 47.912C332.239 47.976 332.111 47.992 331.999 47.992C331.567 47.992 331.567 47.704 331.567 47.064V42.808C331.567 40.872 329.951 40.536 328.463 40.536C326.623 40.536 325.039 41.256 324.959 43.304H326.319C326.383 42.088 327.231 41.736 328.383 41.736C329.247 41.736 330.223 41.928 330.223 43.112C330.223 44.136 328.943 44.04 327.439 44.328C326.031 44.6 324.639 45 324.639 46.872C324.639 48.52 325.871 49.192 327.375 49.192C328.527 49.192 329.535 48.792 330.287 47.912C330.287 48.808 330.735 49.192 331.439 49.192C331.871 49.192 332.175 49.112 332.415 48.968V47.912ZM341.072 37.576H339.712V41.832H339.68C339.072 40.856 337.856 40.536 337.008 40.536C334.48 40.536 333.232 42.504 333.232 44.84C333.232 47.176 334.496 49.192 337.04 49.192C338.176 49.192 339.232 48.792 339.68 47.88H339.712V49H341.072V37.576ZM334.672 44.936C334.672 43.32 335.296 41.736 337.152 41.736C339.024 41.736 339.76 43.24 339.76 44.872C339.76 46.424 339.056 47.992 337.232 47.992C335.472 47.992 334.672 46.488 334.672 44.936ZM343.245 49H344.605V40.728H343.245V49ZM344.605 37.576H343.245V39.24H344.605V37.576ZM353.16 44.792C353.16 46.408 352.536 47.992 350.68 47.992C348.808 47.992 348.072 46.488 348.072 44.856C348.072 43.304 348.776 41.736 350.6 41.736C352.36 41.736 353.16 43.24 353.16 44.792ZM346.76 52.168H348.12V47.896H348.152C348.76 48.872 349.976 49.192 350.824 49.192C353.352 49.192 354.6 47.224 354.6 44.888C354.6 42.552 353.336 40.536 350.792 40.536C349.656 40.536 348.6 40.936 348.152 41.848H348.12V40.728H346.76V52.168ZM356.276 49H357.636V40.728H356.276V49ZM357.636 37.576H356.276V39.24H357.636V37.576ZM359.215 46.392C359.295 48.44 360.863 49.192 362.719 49.192C364.399 49.192 366.239 48.552 366.239 46.584C366.239 44.984 364.895 44.536 363.535 44.232C362.271 43.928 360.831 43.768 360.831 42.792C360.831 41.96 361.775 41.736 362.591 41.736C363.487 41.736 364.415 42.072 364.511 43.128H365.871C365.759 41.112 364.303 40.536 362.479 40.536C361.039 40.536 359.391 41.224 359.391 42.888C359.391 44.472 360.751 44.92 362.095 45.224C363.455 45.528 364.799 45.704 364.799 46.76C364.799 47.8 363.647 47.992 362.799 47.992C361.679 47.992 360.623 47.608 360.575 46.392H359.215ZM374.767 43.384C374.575 41.416 373.071 40.536 371.199 40.536C368.575 40.536 367.295 42.488 367.295 44.968C367.295 47.432 368.639 49.192 371.167 49.192C373.247 49.192 374.511 47.992 374.815 45.976H373.423C373.247 47.224 372.463 47.992 371.151 47.992C369.423 47.992 368.735 46.488 368.735 44.968C368.735 43.288 369.343 41.736 371.311 41.736C372.431 41.736 373.151 42.344 373.359 43.384H374.767ZM376.417 49H377.777V40.728H376.417V49ZM377.777 37.576H376.417V39.24H377.777V37.576ZM379.883 49H381.243V44.328C381.243 42.84 382.043 41.736 383.691 41.736C384.731 41.736 385.371 42.392 385.371 43.4V49H386.731V43.56C386.731 41.784 386.059 40.536 383.883 40.536C382.699 40.536 381.771 41.016 381.195 42.04H381.163V40.728H379.883V49ZM392.102 47.896C390.31 47.896 389.766 46.232 389.766 44.744C389.766 43.16 390.47 41.736 392.214 41.736C393.926 41.736 394.566 43.24 394.566 44.696C394.566 46.248 393.894 47.896 392.102 47.896ZM395.91 40.728H394.63V41.912H394.614C394.118 41 393.19 40.536 392.15 40.536C389.286 40.536 388.326 42.952 388.326 44.904C388.326 47.16 389.558 49.096 392.022 49.096C393.062 49.096 394.15 48.6 394.598 47.592H394.63V48.136C394.63 49.992 393.926 51.272 392.15 51.272C391.254 51.272 390.07 50.92 390.006 49.928H388.646C388.726 51.736 390.518 52.36 392.07 52.36C394.678 52.36 395.91 50.984 395.91 48.296V40.728ZM408.127 46.376C407.887 47.448 407.103 47.992 405.983 47.992C404.175 47.992 403.359 46.712 403.407 45.272H409.599C409.679 43.272 408.783 40.536 405.855 40.536C403.599 40.536 401.967 42.36 401.967 44.84C402.047 47.368 403.295 49.192 405.935 49.192C407.791 49.192 409.103 48.2 409.471 46.376H408.127ZM403.407 44.072C403.503 42.808 404.351 41.736 405.775 41.736C407.119 41.736 408.095 42.776 408.159 44.072H403.407ZM411.088 49H412.448V37.576H411.088V49ZM414.635 49H415.995V40.728H414.635V49ZM415.995 37.576H414.635V39.24H415.995V37.576ZM419.99 38.248H418.63V40.728H417.222V41.928H418.63V47.192C418.63 48.712 419.19 49 420.598 49H421.638V47.8H421.014C420.166 47.8 419.99 47.688 419.99 47.064V41.928H421.638V40.728H419.99V38.248ZM423.453 49H424.397C424.429 49.512 424.189 50.312 423.469 50.552V51.352C424.701 51 425.229 50.04 425.229 48.84V47.224H423.453V49ZM431.527 46.392C431.607 48.44 433.175 49.192 435.031 49.192C436.711 49.192 438.551 48.552 438.551 46.584C438.551 44.984 437.207 44.536 435.847 44.232C434.583 43.928 433.143 43.768 433.143 42.792C433.143 41.96 434.087 41.736 434.903 41.736C435.799 41.736 436.727 42.072 436.823 43.128H438.183C438.071 41.112 436.615 40.536 434.791 40.536C433.351 40.536 431.703 41.224 431.703 42.888C431.703 44.472 433.063 44.92 434.407 45.224C435.767 45.528 437.111 45.704 437.111 46.76C437.111 47.8 435.959 47.992 435.111 47.992C433.991 47.992 432.935 47.608 432.887 46.392H431.527ZM445.767 46.376C445.527 47.448 444.743 47.992 443.623 47.992C441.815 47.992 440.999 46.712 441.047 45.272H447.239C447.319 43.272 446.423 40.536 443.495 40.536C441.239 40.536 439.607 42.36 439.607 44.84C439.687 47.368 440.935 49.192 443.575 49.192C445.431 49.192 446.743 48.2 447.111 46.376H445.767ZM441.047 44.072C441.143 42.808 441.991 41.736 443.415 41.736C444.759 41.736 445.735 42.776 445.799 44.072H441.047ZM456.041 37.576H454.681V41.832H454.649C454.041 40.856 452.825 40.536 451.977 40.536C449.449 40.536 448.201 42.504 448.201 44.84C448.201 47.176 449.465 49.192 452.009 49.192C453.145 49.192 454.201 48.792 454.649 47.88H454.681V49H456.041V37.576ZM449.641 44.936C449.641 43.32 450.265 41.736 452.121 41.736C453.993 41.736 454.729 43.24 454.729 44.872C454.729 46.424 454.025 47.992 452.201 47.992C450.441 47.992 449.641 46.488 449.641 44.936ZM469.979 37.576H468.619V41.832H468.587C467.979 40.856 466.763 40.536 465.915 40.536C463.387 40.536 462.139 42.504 462.139 44.84C462.139 47.176 463.403 49.192 465.947 49.192C467.083 49.192 468.139 48.792 468.587 47.88H468.619V49H469.979V37.576ZM463.579 44.936C463.579 43.32 464.203 41.736 466.059 41.736C467.931 41.736 468.667 43.24 468.667 44.872C468.667 46.424 467.963 47.992 466.139 47.992C464.379 47.992 463.579 46.488 463.579 44.936ZM471.623 44.872C471.623 47.288 473.015 49.192 475.639 49.192C478.263 49.192 479.655 47.288 479.655 44.872C479.655 42.44 478.263 40.536 475.639 40.536C473.015 40.536 471.623 42.44 471.623 44.872ZM473.063 44.872C473.063 42.856 474.215 41.736 475.639 41.736C477.063 41.736 478.215 42.856 478.215 44.872C478.215 46.872 477.063 47.992 475.639 47.992C474.215 47.992 473.063 46.872 473.063 44.872ZM36.736 76.376C36.496 77.448 35.712 77.992 34.592 77.992C32.784 77.992 31.968 76.712 32.016 75.272H38.208C38.288 73.272 37.392 70.536 34.464 70.536C32.208 70.536 30.576 72.36 30.576 74.84C30.656 77.368 31.904 79.192 34.544 79.192C36.4 79.192 37.712 78.2 38.08 76.376H36.736ZM32.016 74.072C32.112 72.808 32.96 71.736 34.384 71.736C35.728 71.736 36.704 72.776 36.768 74.072H32.016ZM39.6978 79H41.0578V70.728H39.6978V79ZM41.0578 67.576H39.6978V69.24H41.0578V67.576ZM50.0126 70.728H48.6526V75.4C48.6526 76.888 47.8526 77.992 46.2046 77.992C45.1646 77.992 44.5246 77.336 44.5246 76.328V70.728H43.1646V76.168C43.1646 77.944 43.8366 79.192 46.0126 79.192C47.1966 79.192 48.1246 78.712 48.7006 77.688H48.7326V79H50.0126V70.728ZM51.5273 76.392C51.6073 78.44 53.1753 79.192 55.0312 79.192C56.7113 79.192 58.5513 78.552 58.5513 76.584C58.5513 74.984 57.2073 74.536 55.8473 74.232C54.5833 73.928 53.1432 73.768 53.1432 72.792C53.1432 71.96 54.0873 71.736 54.9033 71.736C55.7993 71.736 56.7273 72.072 56.8233 73.128H58.1833C58.0713 71.112 56.6153 70.536 54.7913 70.536C53.3513 70.536 51.7033 71.224 51.7033 72.888C51.7033 74.472 53.0633 74.92 54.4073 75.224C55.7673 75.528 57.1113 75.704 57.1113 76.76C57.1113 77.8 55.9593 77.992 55.1113 77.992C53.9913 77.992 52.9353 77.608 52.8873 76.392H51.5273ZM60.0553 79H61.4153V73.848C61.4153 73.224 62.0073 71.736 63.6233 71.736C64.8393 71.736 65.1753 72.504 65.1753 73.576V79H66.5353V73.848C66.5353 72.568 67.3833 71.736 68.6953 71.736C70.0233 71.736 70.2953 72.552 70.2953 73.576V79H71.6553V72.936C71.6553 71.224 70.5513 70.536 68.9033 70.536C67.8472 70.536 66.8713 71.064 66.3113 71.944C65.9753 70.936 65.0473 70.536 64.0393 70.536C62.9033 70.536 61.9753 71.016 61.3673 71.944H61.3353V70.728H60.0553V79ZM73.2479 74.872C73.2479 77.288 74.6399 79.192 77.2639 79.192C79.8879 79.192 81.2799 77.288 81.2799 74.872C81.2799 72.44 79.8879 70.536 77.2639 70.536C74.6399 70.536 73.2479 72.44 73.2479 74.872ZM74.6879 74.872C74.6879 72.856 75.8399 71.736 77.2639 71.736C78.6879 71.736 79.8399 72.856 79.8399 74.872C79.8399 76.872 78.6879 77.992 77.2639 77.992C75.8399 77.992 74.6879 76.872 74.6879 74.872ZM90.2754 67.576H88.9154V71.832H88.8834C88.2754 70.856 87.0594 70.536 86.2114 70.536C83.6834 70.536 82.4354 72.504 82.4354 74.84C82.4354 77.176 83.6994 79.192 86.2434 79.192C87.3794 79.192 88.4354 78.792 88.8834 77.88H88.9154V79H90.2754V67.576ZM83.8754 74.936C83.8754 73.32 84.4994 71.736 86.3554 71.736C88.2274 71.736 88.9634 73.24 88.9634 74.872C88.9634 76.424 88.2594 77.992 86.4354 77.992C84.6754 77.992 83.8754 76.488 83.8754 74.936ZM98.7089 68.248H97.3489V70.728H95.9409V71.928H97.3489V77.192C97.3489 78.712 97.9089 79 99.3169 79H100.357V77.8H99.7329C98.8849 77.8 98.7089 77.688 98.7089 77.064V71.928H100.357V70.728H98.7089V68.248ZM107.58 76.376C107.34 77.448 106.556 77.992 105.436 77.992C103.628 77.992 102.812 76.712 102.86 75.272H109.052C109.132 73.272 108.236 70.536 105.308 70.536C103.052 70.536 101.42 72.36 101.42 74.84C101.5 77.368 102.748 79.192 105.388 79.192C107.244 79.192 108.556 78.2 108.924 76.376H107.58ZM102.86 74.072C102.956 72.808 103.804 71.736 105.228 71.736C106.572 71.736 107.548 72.776 107.612 74.072H102.86ZM110.462 79H111.822V73.848C111.822 73.224 112.414 71.736 114.03 71.736C115.246 71.736 115.582 72.504 115.582 73.576V79H116.942V73.848C116.942 72.568 117.79 71.736 119.102 71.736C120.43 71.736 120.702 72.552 120.702 73.576V79H122.062V72.936C122.062 71.224 120.958 70.536 119.31 70.536C118.253 70.536 117.278 71.064 116.718 71.944C116.382 70.936 115.454 70.536 114.446 70.536C113.31 70.536 112.382 71.016 111.774 71.944H111.742V70.728H110.462V79ZM130.55 74.792C130.55 76.408 129.926 77.992 128.07 77.992C126.198 77.992 125.462 76.488 125.462 74.856C125.462 73.304 126.166 71.736 127.99 71.736C129.75 71.736 130.55 73.24 130.55 74.792ZM124.15 82.168H125.51V77.896H125.542C126.15 78.872 127.366 79.192 128.214 79.192C130.742 79.192 131.99 77.224 131.99 74.888C131.99 72.552 130.726 70.536 128.182 70.536C127.046 70.536 125.99 70.936 125.542 71.848H125.51V70.728H124.15V82.168ZM133.139 74.872C133.139 77.288 134.531 79.192 137.155 79.192C139.779 79.192 141.171 77.288 141.171 74.872C141.171 72.44 139.779 70.536 137.155 70.536C134.531 70.536 133.139 72.44 133.139 74.872ZM134.579 74.872C134.579 72.856 135.731 71.736 137.155 71.736C138.579 71.736 139.731 72.856 139.731 74.872C139.731 76.872 138.579 77.992 137.155 77.992C135.731 77.992 134.579 76.872 134.579 74.872ZM142.726 79H144.086V75.32C144.086 73.224 144.886 71.976 147.078 71.976V70.536C145.606 70.488 144.694 71.144 144.038 72.472H144.006V70.728H142.726V79ZM152.635 79H153.995V70.728H152.635V79ZM153.995 67.576H152.635V69.24H153.995V67.576ZM156.102 79H157.462V74.328C157.462 72.84 158.262 71.736 159.91 71.736C160.95 71.736 161.59 72.392 161.59 73.4V79H162.95V73.56C162.95 71.784 162.278 70.536 160.102 70.536C158.918 70.536 157.99 71.016 157.414 72.04H157.382V70.728H156.102V79ZM172.017 73.384C171.825 71.416 170.321 70.536 168.449 70.536C165.825 70.536 164.545 72.488 164.545 74.968C164.545 77.432 165.889 79.192 168.417 79.192C170.497 79.192 171.761 77.992 172.065 75.976H170.673C170.497 77.224 169.713 77.992 168.401 77.992C166.673 77.992 165.985 76.488 165.985 74.968C165.985 73.288 166.593 71.736 168.561 71.736C169.681 71.736 170.401 72.344 170.609 73.384H172.017ZM173.667 79H175.027V70.728H173.667V79ZM175.027 67.576H173.667V69.24H175.027V67.576ZM184.525 67.576H183.165V71.832H183.133C182.525 70.856 181.309 70.536 180.461 70.536C177.933 70.536 176.685 72.504 176.685 74.84C176.685 77.176 177.949 79.192 180.493 79.192C181.629 79.192 182.685 78.792 183.133 77.88H183.165V79H184.525V67.576ZM178.125 74.936C178.125 73.32 178.749 71.736 180.605 71.736C182.477 71.736 183.213 73.24 183.213 74.872C183.213 76.424 182.509 77.992 180.685 77.992C178.925 77.992 178.125 76.488 178.125 74.936ZM186.698 79H188.058V70.728H186.698V79ZM188.058 67.576H186.698V69.24H188.058V67.576ZM197.557 67.576H196.197V71.832H196.165C195.557 70.856 194.341 70.536 193.493 70.536C190.965 70.536 189.717 72.504 189.717 74.84C189.717 77.176 190.981 79.192 193.525 79.192C194.661 79.192 195.717 78.792 196.165 77.88H196.197V79H197.557V67.576ZM191.157 74.936C191.157 73.32 191.781 71.736 193.637 71.736C195.509 71.736 196.245 73.24 196.245 74.872C196.245 76.424 195.541 77.992 193.717 77.992C191.957 77.992 191.157 76.488 191.157 74.936ZM206.497 70.728H205.137V75.4C205.137 76.888 204.337 77.992 202.689 77.992C201.649 77.992 201.009 77.336 201.009 76.328V70.728H199.649V76.168C199.649 77.944 200.321 79.192 202.497 79.192C203.681 79.192 204.609 78.712 205.185 77.688H205.217V79H206.497V70.728ZM208.54 79H209.9V74.328C209.9 72.84 210.7 71.736 212.348 71.736C213.388 71.736 214.028 72.392 214.028 73.4V79H215.388V73.56C215.388 71.784 214.716 70.536 212.54 70.536C211.356 70.536 210.428 71.016 209.852 72.04H209.82V70.728H208.54V79ZM219.318 68.248H217.958V70.728H216.55V71.928H217.958V77.192C217.958 78.712 218.518 79 219.926 79H220.966V77.8H220.342C219.494 77.8 219.318 77.688 219.318 77.064V71.928H220.966V70.728H219.318V68.248Z" fill="#252525"/>
</g>
<defs>
<filter id="filter0_d_2_269" x="-5" y="-3" width="550" height="160" filterUnits="userSpaceOnUse" color-interpolation-filters="sRGB">
<feFlood flood-opacity="0" result="BackgroundImageFix"/>
<feColorMatrix in="SourceAlpha" type="matrix" values="0 0 0 0 0 0 0 0 0 0 0 0 0 0 0 0 0 0 127 0" result="hardAlpha"/>
<feOffset dy="2"/>
<feGaussianBlur stdDeviation="2.5"/>
<feColorMatrix type="matrix" values="0 0 0 0 0 0 0 0 0 0 0 0 0 0 0 0 0 0 0.05 0"/>
<feBlend mode="normal" in2="BackgroundImageFix" result="effect1_dropShadow_2_269"/>
<feBlend mode="normal" in="SourceGraphic" in2="effect1_dropShadow_2_269" result="shape"/>
</filter>
<clipPath id="clip0_2_269">
<rect width="540" height="150" fill="white"/>
</clipPath>
<clipPath id="clip1_2_269">
<rect width="65" height="25" fill="white" transform="translate(30 100)"/>
</clipPath>
</defs>
</svg>
